<?xml version="1.0" standalone="no"?> <!DOCTYPE svg PUBLIC "-//W3C//DTD SVG 20010904//EN" "http://www.w3.org/TR/2001/REC-SVG-20010904/DTD/svg10.dtd"> <svg version="1.0" xmlns="http://www.w3.org/2000/svg" width="600.000000pt" height="600.000000pt" viewBox="0 0 600.000000 600.000000" preserveAspectRatio="xMidYMid meet"> <g transform="translate(0.000000,600.000000) scale(0.050000,-0.050000)" fill="#b6c3ef" stroke="none"> <path d="M4266 8911 c-610 -191 -725 -995 -192 -1341 l123 -80 2 -1292 1 -1292 -81 -37 c-542 -244 -478 -1133 97 -1348 858 -320 1421 889 630 1352 l-86 51 0 1283 0 1283 91 48 c103 55 253 212 311 326 l39 76 984 0 c1217 0 1297 -12 1526 -223 455 -420 381 -1130 -151 -1442 -140 -82 -300 -115 -559 -115 l-231 0 -56 88 c-388 614 -1318 348 -1323 -378 -4 -731 974 -1011 1331 -380 l59 105 314 10 c493 16 747 118 1058 427 783 776 429 2111 -643 2421 -106 31 -251 36 -1231 42 l-1111 7 -37 69 c-153 283 -549 439 -865 340z"/> </g> </svg>