<svg xmlns="http://www.w3.org/2000/svg" viewBox="0 0 256 257">
  <defs>
    <linearGradient id="a" x1="-1%" x2="58%" y1="7%" y2="78%">
      <stop offset="0%" stop-color="#41D1FF" />
      <stop offset="100%" stop-color="#BD34FE" />
    </linearGradient>
    <linearGradient id="b" x1="43%" x2="50%" y1="2%" y2="89%">
      <stop offset="0%" stop-color="#FFEA83" />
      <stop offset="8%" stop-color="#FFDD35" />
      <stop offset="100%" stop-color="#FFA800" />
    </linearGradient>
  </defs>
  <path fill="url(#a)" d="M255 37 135 252c-2 4-8 4-10 0L1 37c-3-5 1-11 7-10l121 22a6 6 0 0 0 2 0l117-22c6-1 10 5 7 10Z" />
  <path fill="url(#b)" d="M185 0 96 18a3 3 0 0 0-2 3l-6 97c0 3 3 5 6 4l25-6c2-1 5 1 4 4l-7 36c-1 3 3 5 5 3l16-24c2-2 5-1 5 2l-1 73c0 4 6 5 7 1l54-107c1-2-1-5-3-4l-26 5c-2 0-4-2-3-4l17-96c1-3-1-5-4-5Z" />
</svg>
